<svg width="250" height="62" viewBox="0 0 250 62" fill="none" xmlns="http://www.w3.org/2000/svg">
<g filter="url(#filter0_d_1_108)">
<path d="M68.0482 4.00415L116.266 48.0001" stroke="#C84141" stroke-opacity="0.6" stroke-width="7" stroke-linecap="round"/>
<path d="M67.1397 47.9302L115.43 3.99995" stroke="#C84141" stroke-opacity="0.6" stroke-width="7" stroke-linecap="round"/>
</g>
<g filter="url(#filter1_d_1_108)">
<ellipse cx="162.118" cy="27" rx="34.3886" ry="21" stroke="#4835BA" stroke-opacity="0.5" stroke-width="7" shape-rendering="crispEdges"/>
</g>
<path d="M22.9275 11.28C23.4608 11.28 24.4208 11.3867 25.8075 11.6V15.92H24.5275C24.2075 15.92 23.9195 16.0267 23.6635 16.24C23.4075 16.432 23.2155 16.6453 23.0875 16.88L20.0475 22.64L26.2875 34H20.2075L15.2475 24.88H12.3675V34H6.6075V11.6H12.3675V20.4H15.2475L18.4475 14.32C18.9168 13.424 19.4928 12.6987 20.1755 12.144C20.8795 11.568 21.7968 11.28 22.9275 11.28ZM37.3213 21.36C36.1906 21.36 34.9106 21.5733 33.4813 22V29.68H38.2813C39.1346 29.68 39.5613 29.2533 39.5613 28.4V22.48C39.5613 22.16 39.4546 21.8933 39.2413 21.68C39.0279 21.4667 38.7613 21.36 38.4413 21.36H37.3213ZM33.4813 34V39.44H27.8813V17.04H32.8413L33.1613 18.64C34.1639 17.9787 35.1879 17.4987 36.2333 17.2C37.2999 16.88 38.1959 16.72 38.9213 16.72H40.3613C41.8119 16.72 42.9746 17.1573 43.8493 18.032C44.7239 18.9067 45.1613 20.0693 45.1613 21.52V28.88C45.1613 30.48 44.7026 31.7387 43.7853 32.656C42.8893 33.552 41.6412 34 40.0413 34H33.4813ZM54.5975 20.72C53.7442 20.72 53.3175 21.1467 53.3175 22V23.76H58.7575V22C58.7575 21.1467 58.3308 20.72 57.4775 20.72H54.5975ZM63.7175 33.68C59.6002 34.1067 55.8668 34.32 52.5175 34.32C51.0668 34.32 49.9042 33.8827 49.0295 33.008C48.1548 32.1333 47.7175 30.9707 47.7175 29.52V21.84C47.7175 20.24 48.1655 18.992 49.0615 18.096C49.9788 17.1787 51.2375 16.72 52.8375 16.72H59.2375C60.8375 16.72 62.0855 17.1787 62.9815 18.096C63.8988 18.992 64.3575 20.24 64.3575 21.84V27.76H53.3175V29.04C53.3175 29.36 53.4242 29.6267 53.6375 29.84C53.8508 30.0533 54.1175 30.16 54.4375 30.16C56.5495 30.16 59.6428 30 63.7175 29.68V33.68ZM82.265 33.68C78.2757 34.1067 74.7557 34.32 71.705 34.32C70.2543 34.32 69.0917 33.8827 68.217 33.008C67.3423 32.1333 66.905 30.9707 66.905 29.52V22.16C66.905 20.56 67.353 19.312 68.249 18.416C69.1663 17.4987 70.425 17.04 72.025 17.04H82.265V21.36H73.785C72.9317 21.36 72.505 21.7867 72.505 22.64V28.88C72.505 29.2 72.6117 29.4667 72.825 29.68C73.0383 29.8933 73.305 30 73.625 30C75.545 30 78.425 29.84 82.265 29.52V33.68ZM94.4188 21.36V34H88.8188V21.36H83.5388V17.04H99.6988V21.36H94.4188ZM101.631 34V17.04H107.231V22.32H113.471C114.922 22.32 116.085 22.7573 116.959 23.632C117.834 24.5067 118.271 25.6693 118.271 27.12V29.2C118.271 30.6507 117.834 31.8133 116.959 32.688C116.085 33.5627 114.922 34 113.471 34H101.631ZM111.551 30C111.871 30 112.138 29.8933 112.351 29.68C112.565 29.4667 112.671 29.2 112.671 28.88V27.472C112.671 27.152 112.565 26.8853 112.351 26.672C112.138 26.4587 111.871 26.352 111.551 26.352H107.231V30H111.551ZM125.951 34H120.351V17.04H125.951V34ZM149.796 17.04H155.716V34H150.116V24.72L144.676 34H138.756V17.04H144.356V26.32L149.796 17.04ZM179.866 23.28V17.04H185.466V34H179.866V27.6H174.106V34H168.506V17.04H174.106V23.28H179.866ZM193.143 39.76C192.012 39.76 190.625 39.6533 188.983 39.44V35.28H191.863C192.673 35.28 193.196 35.056 193.431 34.608C193.687 34.16 193.644 33.5307 193.303 32.72L186.742 17.04H192.663L196.663 27.92L200.023 17.04H205.943L199.543 34.64C198.924 36.3253 198.124 37.5947 197.143 38.448C196.161 39.3227 194.828 39.76 193.143 39.76ZM208.208 34.32C207.29 34.32 206.224 34.2133 205.008 34V29.84H206.288C207.098 29.84 207.525 29.4133 207.568 28.56L208.208 17.04H223.568V34H217.968V21.36H213.488L213.008 29.52C212.922 30.9707 212.442 32.1333 211.568 33.008C210.693 33.8827 209.573 34.32 208.208 34.32ZM237.796 17.04H243.716V34H238.116V24.72L232.676 34H226.756V17.04H232.356V26.32L237.796 17.04Z" fill="black" fill-opacity="0.8"/>
<defs>
<filter id="filter0_d_1_108" x="59.4833" y="0.663696" width="64.4395" height="58.6726" filterUnits="userSpaceOnUse" color-interpolation-filters="sRGB">
<feFlood flood-opacity="0" result="BackgroundImageFix"/>
<feColorMatrix in="SourceAlpha" type="matrix" values="0 0 0 0 0 0 0 0 0 0 0 0 0 0 0 0 0 0 127 0" result="hardAlpha"/>
<feOffset dy="4"/>
<feGaussianBlur stdDeviation="2"/>
<feComposite in2="hardAlpha" operator="out"/>
<feColorMatrix type="matrix" values="0 0 0 0 0 0 0 0 0 0 0 0 0 0 0 0 0 0 0.25 0"/>
<feBlend mode="normal" in2="BackgroundImageFix" result="effect1_dropShadow_1_108"/>
<feBlend mode="normal" in="SourceGraphic" in2="effect1_dropShadow_1_108" result="shape"/>
</filter>
<filter id="filter1_d_1_108" x="120.229" y="2.5" width="83.7773" height="57" filterUnits="userSpaceOnUse" color-interpolation-filters="sRGB">
<feFlood flood-opacity="0" result="BackgroundImageFix"/>
<feColorMatrix in="SourceAlpha" type="matrix" values="0 0 0 0 0 0 0 0 0 0 0 0 0 0 0 0 0 0 127 0" result="hardAlpha"/>
<feOffset dy="4"/>
<feGaussianBlur stdDeviation="2"/>
<feComposite in2="hardAlpha" operator="out"/>
<feColorMatrix type="matrix" values="0 0 0 0 0 0 0 0 0 0 0 0 0 0 0 0 0 0 0.25 0"/>
<feBlend mode="normal" in2="BackgroundImageFix" result="effect1_dropShadow_1_108"/>
<feBlend mode="normal" in="SourceGraphic" in2="effect1_dropShadow_1_108" result="shape"/>
</filter>
</defs>
</svg>
