<svg xmlns="http://www.w3.org/2000/svg" version="1.1" width="100%" height="100%" viewBox="0 0 60 70" style="shape-rendering:geometricPrecision; text-rendering:geometricPrecision; image-rendering:optimizeQuality; fill-rule:evenodd; clip-rule:evenodd" >
<g><path fill="currentColor" d="M 20.5,-0.5 C 25.8333,-0.5 31.1667,-0.5 36.5,-0.5C 46.7661,2.76672 53.7661,9.43338 57.5,19.5C 57.5,24.5 57.5,29.5 57.5,34.5C 55.0509,43.0682 51.2175,51.0682 46,58.5C 42.5505,62.1234 38.7172,65.1234 34.5,67.5C 30.5,67.5 26.5,67.5 22.5,67.5C 13.2231,62.3358 6.72307,54.6691 3,44.5C 1.89744,41.02 0.73077,37.6867 -0.5,34.5C -0.5,29.5 -0.5,24.5 -0.5,19.5C 3.2339,9.43338 10.2339,2.76672 20.5,-0.5 Z M 27.5,7.5 C 47.048,10.9001 53.2147,21.9001 46,40.5C 34.3333,65.8333 22.6667,65.8333 11,40.5C 3.80687,22.8852 9.30687,11.8852 27.5,7.5 Z"/></g>
<g><path fill="currentColor" d="M 12.5,25.5 C 15.6021,25.154 18.4355,25.8207 21,27.5C 22.6667,30.8333 24.3333,34.1667 26,37.5C 26.6838,38.7839 26.5171,39.9505 25.5,41C 18.4926,40.6626 13.1593,37.4959 9.5,31.5C 10.1286,29.2592 11.1286,27.2592 12.5,25.5 Z"/></g>
<g><path  fill="currentColor" d="M 37.5,25.5 C 43.2966,24.4743 46.13,26.8076 46,32.5C 42.4685,38.3418 37.3019,41.1751 30.5,41C 29.4829,39.9505 29.3162,38.7839 30,37.5C 31.7886,32.894 34.2886,28.894 37.5,25.5 Z"/></g>
</svg>
