<svg height="100%" width="100%" viewBox="0 0 67 50" fill="none" xmlns="http://www.w3.org/2000/svg">
<path d="M33.9473 40.3299C32.9839 40.3299 32.0252 40.3152 31.0725 40.2876V45.6283C31.0725 47.6527 32.3596 49.2946 33.9473 49.2946C35.535 49.2946 36.8221 47.6529 36.8221 45.6283V40.2876C35.8694 40.3152 34.9107 40.3299 33.9473 40.3299Z" fill="currentColor"/>
<path d="M18.3265 39.0814L16.6691 45.1218C16.1449 47.0328 16.9346 49.1246 18.433 49.7932C18.7471 49.9335 19.0674 50 19.3825 50C20.5702 50 21.6813 49.0542 22.0958 47.5437L24.1294 40.1319C22.1246 39.8464 20.184 39.4954 18.3265 39.0814Z" fill="currentColor"/>
<path d="M50.1849 45.1218L48.5277 39.0814C46.6702 39.4952 44.7295 39.8464 42.7246 40.1319L44.7582 47.5437C45.1727 49.0544 46.2838 50 47.4715 50C47.7864 50 48.1069 49.9336 48.421 49.7932C49.9195 49.1246 50.7092 47.0328 50.1849 45.1218Z" fill="currentColor"/>
<path d="M52.092 11.4286C52.5713 13.579 52.8202 15.8268 52.8202 18.1237C52.8202 20.7836 51.59 23.1944 49.6809 24.2755C49.3854 24.4427 42.3445 28.374 33.6604 28.374C24.9762 28.374 17.9352 24.4425 17.6398 24.2755C15.7307 23.1944 14.5005 20.7833 14.5005 18.1237C14.5005 15.7946 14.7565 13.5162 15.2492 11.3387C8.19337 13.1409 0 16.7591 0 23.8409C0 28.6143 3.68552 32.3773 10.9545 35.0251C13.04 35.7849 15.3567 36.427 17.844 36.9426C19.5565 37.2974 21.3509 37.5919 23.2058 37.8238C25.6634 38.1311 28.2279 38.3277 30.8553 38.4068C31.7308 38.4331 32.6126 38.4475 33.5001 38.4475C34.3876 38.4475 35.2695 38.4333 36.1449 38.4068C38.7721 38.3279 41.3369 38.131 43.7944 37.8238C45.6495 37.5919 47.4436 37.2977 49.1561 36.9426C51.6437 36.427 53.9604 35.7849 56.0459 35.0251C63.3145 32.3773 67 28.6143 67 23.8409C67 16.8602 59.0082 13.2476 52.092 11.4286Z" fill="currentColor"/>
<path d="M47.3084 11.0153C46.8925 9.89495 46.3947 8.83411 45.8242 7.84528C45.2367 6.82798 44.574 5.88596 43.8446 5.035C41.1634 1.90835 37.5941 0 33.6747 0C29.7704 0 26.2127 1.89257 23.5352 4.99781C22.8063 5.84297 22.1434 6.77936 21.5558 7.79068C20.9822 8.77733 20.4811 9.83635 20.0622 10.9554C19.1243 13.4611 18.5981 16.2656 18.5981 19.2272C18.5981 19.2272 25.3482 23.0571 33.6747 23.0571C42.0011 23.0571 48.751 19.2272 48.751 19.2272C48.751 16.289 48.2322 13.5061 47.3084 11.0153Z" fill="currentColor"/>
</svg>
