<svg height="100%" width="100%" viewBox="0 0 71 50" fill="none" xmlns="http://www.w3.org/2000/svg">
<path d="M56.0059 25C56.0059 36.7259 46.8484 46 35.8332 46C24.8181 46 15.6606 36.7259 15.6606 25C15.6606 13.2741 24.8181 4 35.8332 4C46.8484 4 56.0059 13.2741 56.0059 25Z" stroke="currentColor" stroke-width="8"/>
<path d="M14.193 24.7983C15.7384 24.2009 16.507 22.4639 15.9096 20.9184C15.3123 19.373 13.5752 18.6044 12.0298 19.2018L14.193 24.7983ZM57.1669 23.8601C60.0401 24.7698 62.0729 25.6007 63.4301 26.3295C64.8997 27.1186 65.1591 27.5702 65.1203 27.4959C65.0537 27.3682 64.9536 27.0641 65.0234 26.6794C65.0861 26.3333 65.2401 26.1809 65.2058 26.2183C65.0692 26.367 64.5255 26.7783 63.2119 27.292C60.6903 28.2781 56.6501 29.1497 51.653 29.8122C46.7117 30.4673 41.0253 30.8944 35.3216 31.0639C29.6175 31.2333 23.9412 31.1436 19.0197 30.7769C14.0352 30.4054 10.0413 29.7638 7.58059 28.92C6.98405 28.7155 6.53468 28.5178 6.21234 28.3406C6.05374 28.2535 5.94029 28.1791 5.86295 28.1218C5.78503 28.064 5.75683 28.0331 5.75916 28.0356C5.76819 28.0455 5.93075 28.2324 5.98442 28.5914C6.04014 28.9641 5.93319 29.2168 5.90804 29.2653C5.8994 29.2819 5.97682 29.1332 6.30527 28.8379C6.62445 28.5509 7.10727 28.1911 7.80617 27.7668C9.2096 26.9149 11.2861 25.9219 14.193 24.7983L12.0298 19.2018C8.95401 20.3907 6.51701 21.5305 4.69279 22.6378C2.96322 23.6877 1.39491 24.9354 0.582017 26.5024C0.137148 27.36 -0.113905 28.3799 0.0503754 29.4786C0.212607 30.5637 0.736396 31.4357 1.33641 32.0902C2.44816 33.3029 4.0882 34.0654 5.6344 34.5956C8.84672 35.6972 13.4681 36.3798 18.5738 36.7603C23.7425 37.1455 29.6313 37.2355 35.4998 37.0612C41.3687 36.8869 47.2625 36.4468 52.4416 35.7601C57.5649 35.0809 62.1853 34.136 65.3971 32.8799C66.9502 32.2725 68.5414 31.4563 69.6246 30.2771C70.2001 29.6506 70.7351 28.8092 70.9272 27.7497C71.1262 26.6516 70.9038 25.6099 70.4401 24.721C69.6072 23.1242 67.9738 21.9591 66.2686 21.0434C64.451 20.0673 62.027 19.1053 58.9779 18.1399L57.1669 23.8601Z" fill="currentColor"/>
</svg>
