<svg height="100%" width="100%" viewBox="0 0 65 65" fill="none" xmlns="http://www.w3.org/2000/svg">
<path fill-rule="evenodd" clip-rule="evenodd" d="M32.5 8.125C38.5253 8.125 44.0451 10.3145 48.2983 13.9374C50.8195 13.3406 53.1329 13.0651 55.0872 13.2312C57.1448 13.4061 59.4298 14.1445 60.6458 16.2505C61.746 18.1561 61.5984 20.2836 60.8503 22.2194C60.1153 24.1209 58.7199 26.0843 56.8395 28.0781C56.7385 28.1851 56.6359 28.2926 56.5313 28.4007C56.7575 29.7351 56.875 31.1047 56.875 32.5C56.875 45.962 45.9618 56.875 32.5 56.875C26.5859 56.875 21.1583 54.7655 16.9379 51.2614C16.7906 51.2983 16.6446 51.3337 16.4999 51.3681C13.8332 51.9997 11.4352 52.2264 9.42091 51.912C7.36932 51.5921 5.45119 50.651 4.3541 48.7505C3.13857 46.6454 3.64102 44.2975 4.51774 42.4287C5.35063 40.6534 6.74548 38.7879 8.52215 36.9032C8.26106 35.4732 8.12497 34.0015 8.12497 32.5C8.12497 19.0381 19.038 8.125 32.5 8.125ZM9.05994 46.066C8.67175 44.1472 11.7688 41.324 12.8683 40.1968C13.8485 39.1923 14.2337 37.7766 13.9519 36.4444C13.6834 35.1742 13.5416 33.8552 13.5416 32.5C13.5416 22.0296 22.0296 13.5417 32.5 13.5417C37.3783 13.5417 41.8208 15.3807 45.1818 18.4076C46.1955 19.3205 47.6158 19.6952 48.977 19.3483C50.5034 18.9593 54.4995 17.6874 55.968 18.9837C56.8766 20.8881 53.3379 23.9442 52.2324 25.0459C52.2235 25.0549 52.2145 25.0639 52.2056 25.073C48.8546 28.405 43.3171 32.51 35.2084 37.1916C27.1039 41.8706 20.7828 44.6133 16.2224 45.8502C16.2091 45.8537 16.1959 45.8572 16.1826 45.8608C14.755 46.2461 10.2007 47.726 9.05994 46.066ZM23.3801 49.1254C27.5476 47.463 32.3995 45.0677 37.9167 41.8825C43.4319 38.6983 47.931 35.6947 51.4537 32.9176C51.2317 43.1952 42.8307 51.4583 32.5 51.4583C29.1923 51.4583 26.0855 50.6131 23.3801 49.1254Z" fill="currentColor"/>
</svg>
