<svg height="100%" width="100%" viewBox="0 0 63 60" fill="none" xmlns="http://www.w3.org/2000/svg">
<path d="M29.5979 5.85411C30.1966 4.01149 32.8034 4.01148 33.4021 5.8541L38.3477 21.075C38.6154 21.899 39.3833 22.4569 40.2498 22.4569H56.254C58.1914 22.4569 58.997 24.9362 57.4295 26.075L44.4819 35.482C43.7809 35.9913 43.4876 36.894 43.7553 37.7181L48.7009 52.9389C49.2996 54.7816 47.1907 56.3138 45.6232 55.175L32.6756 45.768C31.9746 45.2587 31.0254 45.2587 30.3244 45.768L17.3768 55.175C15.8094 56.3138 13.7004 54.7816 14.2991 52.939L19.2447 37.7181C19.5124 36.894 19.2191 35.9913 18.5181 35.482L5.57046 26.075C4.00304 24.9362 4.80858 22.4569 6.74603 22.4569H22.7502C23.6167 22.4569 24.3846 21.899 24.6523 21.075L29.5979 5.85411Z" stroke="currentColor" stroke-width="8"/>
</svg>
