<svg height="100%" width="100%" viewBox="0 0 65 62" fill="none" xmlns="http://www.w3.org/2000/svg">
<path d="M30.5979 6.85411C31.1966 5.01149 33.8034 5.01148 34.4021 6.8541L39.3477 22.075C39.6154 22.899 40.3833 23.4569 41.2498 23.4569H57.254C59.1914 23.4569 59.997 25.9362 58.4295 27.075L45.4819 36.482C44.7809 36.9913 44.4876 37.894 44.7553 38.7181L49.7009 53.9389C50.2996 55.7816 48.1907 57.3138 46.6232 56.175L33.6756 46.768C32.9746 46.2587 32.0254 46.2587 31.3244 46.768L18.3768 56.175C16.8094 57.3138 14.7004 55.7816 15.2991 53.939L20.2447 38.7181C20.5124 37.894 20.2191 36.9913 19.5181 36.482L6.57046 27.075C5.00304 25.9362 5.80858 23.4569 7.74603 23.4569H23.7502C24.6167 23.4569 25.3846 22.899 25.6523 22.075L30.5979 6.85411Z" stroke="currentColor" stroke-width="10"/>
</svg>
