<svg width="58" height="68" viewBox="0 0 58 68" fill="none" xmlns="http://www.w3.org/2000/svg">
<path d="M54 27.2558C54 40.0996 42.8071 64 29 64C15.1929 64 4 40.0996 4 27.2558C4 14.412 15.1929 4 29 4C42.8071 4 54 14.412 54 27.2558Z" stroke="#91FF7F" stroke-width="8"/>
<path d="M19.8711 34.6805C20.0785 35.08 20.318 35.5203 20.5585 35.9565C19.7937 35.6079 19.0179 35.2035 18.2799 34.7617C17.0062 33.9991 15.9935 33.2137 15.3535 32.5352C15.0679 32.2324 14.9287 32.0297 14.8657 31.9254C14.8861 31.038 15.007 30.6268 15.0662 30.4752C15.2247 30.4175 15.6035 30.3256 16.3692 30.3256C16.913 30.3256 17.1563 30.4162 17.2484 30.4583C17.3359 30.4983 17.4682 30.5764 17.6772 30.8159C17.9134 31.0865 18.1952 31.5021 18.5755 32.1886C18.8365 32.6597 19.0765 33.1299 19.3609 33.6871C19.5145 33.9882 19.6812 34.3147 19.8711 34.6805ZM24.6845 37.2074C24.6846 37.2076 24.6791 37.2081 24.6676 37.2086C24.6785 37.2075 24.6843 37.2072 24.6845 37.2074ZM14.9709 30.5207C14.9699 30.52 14.9788 30.5132 15.0004 30.5026C14.9827 30.5161 14.9718 30.5214 14.9709 30.5207Z" stroke="#91FF7F" stroke-width="8"/>
<path d="M37.1484 34.6805C36.941 35.08 36.7015 35.5203 36.4611 35.9565C37.2258 35.6079 38.0016 35.2035 38.7396 34.7617C40.0133 33.9991 41.0261 33.2137 41.6661 32.5352C41.9517 32.2324 42.0909 32.0297 42.1538 31.9254C42.1334 31.038 42.0125 30.6268 41.9533 30.4752C41.7949 30.4175 41.4161 30.3256 40.6504 30.3256C40.1066 30.3256 39.8633 30.4162 39.7711 30.4583C39.6836 30.4983 39.5513 30.5764 39.3423 30.8159C39.1062 31.0865 38.8244 31.5021 38.444 32.1886C38.183 32.6597 37.943 33.1299 37.6587 33.6871C37.505 33.9882 37.3384 34.3147 37.1484 34.6805ZM32.3351 37.2074C32.3349 37.2076 32.3404 37.2081 32.3519 37.2086C32.341 37.2075 32.3352 37.2072 32.3351 37.2074ZM42.0487 30.5207C42.0496 30.52 42.0407 30.5132 42.0191 30.5026C42.0369 30.5161 42.0477 30.5214 42.0487 30.5207Z" stroke="#91FF7F" stroke-width="8"/>
</svg>
